<svg id="Capa_1" enable-background="new 0 0 512 512" height="512" viewBox="0 0 512 512" width="512" xmlns="http://www.w3.org/2000/svg"><g><path d="m345 180c8.284 0 15-6.716 15-15s-6.716-15-15-15h-15c0-21.867-12.028-41.633-30.538-52.078.358-2.626.538-5.269.538-7.922 0-33.084-26.916-60-60-60-2.653 0-5.296.18-7.921.538-10.446-18.508-30.213-30.538-52.079-30.538s-41.633 12.03-52.079 30.538c-2.625-.358-5.268-.538-7.921-.538-33.084 0-60 26.916-60 60 0 2.653.18 5.296.538 7.922-18.51 10.445-30.538 30.211-30.538 52.078h-15c-8.284 0-15 6.716-15 15s6.716 15 15 15h16.294l28.767 318.35c.698 7.73 7.178 13.65 14.939 13.65h210c7.761 0 14.241-5.92 14.939-13.65l28.767-318.35zm-262.79-58.788c4.136-1.119 7.596-3.954 9.507-7.789s2.091-8.304.494-12.28c-1.467-3.655-2.211-7.404-2.211-11.143 0-16.542 13.458-30 30-30 3.739 0 7.488.744 11.143 2.212 3.975 1.597 8.445 1.417 12.28-.495 3.835-1.911 6.669-5.371 7.789-9.508 3.538-13.076 15.376-22.209 28.788-22.209s25.25 9.133 28.788 22.21c1.119 4.136 3.954 7.596 7.789 9.508s8.304 2.091 12.28.495c3.655-1.469 7.404-2.213 11.143-2.213 16.542 0 30 13.458 30 30 0 3.739-.744 7.488-2.211 11.143-1.597 3.976-1.417 8.445.494 12.28 1.912 3.835 5.372 6.669 9.507 7.789 13.077 3.538 22.21 15.376 22.21 28.788h-240c0-13.412 9.133-25.25 22.21-28.788zm-20.793 58.788h36.746l13.645 302h-23.102zm66.776 0h36.807v302h-23.163zm66.807 302v-302h36.807l-13.645 302zm76.294 0h-23.101l13.645-302h36.746z"/><path d="m512 392c0-33.084-26.916-60-60-60s-60 26.916-60 60c-33.084 0-60 26.916-60 60s26.916 60 60 60c10.574 0 20.898-2.854 30-8.184 9.102 5.33 19.426 8.184 30 8.184 33.084 0 60-26.916 60-60 0-10.574-2.854-20.898-8.184-30 5.33-9.102 8.184-19.426 8.184-30zm-37.823 40.04c3.569 3.961 7.823 10.64 7.823 19.96 0 16.542-13.458 30-30 30-9.32 0-15.999-4.254-19.96-7.823-2.853-2.57-6.446-3.855-10.04-3.855s-7.187 1.285-10.04 3.855c-3.961 3.569-10.64 7.823-19.96 7.823-16.542 0-30-13.458-30-30s13.458-30 30-30c4.386 0 8.801 1.078 13.124 3.205 5.762 2.835 12.689 1.688 17.229-2.852 4.541-4.541 5.688-11.468 2.853-17.229-2.128-4.322-3.206-8.738-3.206-13.124 0-16.542 13.458-30 30-30s30 13.458 30 30c0 9.32-4.254 15.999-7.823 19.96-5.141 5.707-5.141 14.373 0 20.08z"/><path d="m169.393 124.394c2.834-2.834 6.601-4.394 10.607-4.394s7.773 1.56 10.607 4.394c2.929 2.929 6.768 4.393 10.606 4.393s7.678-1.465 10.607-4.394c5.858-5.858 5.857-15.355 0-21.213-8.5-8.499-19.8-13.18-31.82-13.18s-23.32 4.681-31.82 13.18c-5.858 5.858-5.858 15.355 0 21.213s15.355 5.858 21.213.001z"/></g></svg>